# xmcd
#
# Track frame offsets:
#	150
#	14586
#	24400
#	37252
#	50252
#	64357
#	75144
#	90333
#	101141
#	111047
#	121106
#	132310
#	144151
#	155018
#	167428
#	180126
#	191657
#	203363
#	215278
#	227174
#
# Disc length: 3175 seconds
#
# Revision: 5
# Processed by: cddbd v1.5.2PL0 Copyright (c) Steve Scherf et al.
# Submitted via: EasyCDDAExtractor 12.0.0.1
#
DISCID=f90c6514
DTITLE=ANTONIO AGUILAR
DYEAR=1900
DGENRE=Disco
TTITLE0=YO EL AVENTURERO
TTITLE1=EL REVOLUCIONARIO
TTITLE2=QUE BONITO ES EL AMOR
TTITLE3=SONARON CUATRO BALAZOS
TTITLE4=CARTA PERDIDA
TTITLE5=LAGUNA DE PESARES
TTITLE6=BALA PERDIDA
TTITLE7=LA CAMA DE PIEDRA
TTITLE8=DOS PALOMAS AL VOLAR
TTITLE9=ALMA DE ACERO
TTITLE10=EL CHIVO
TTITLE11=OJITOS VERDES
TTITLE12=LA MUERTE
TTITLE13=JUNTITO A LA VIRGEN
TTITLE14=AL PIE DEL CAÑON
TTITLE15=VEINTE AÑOS
TTITLE16=LA ELISA
TTITLE17=PALOMA TRISTE
TTITLE18=OBSESION
TTITLE19=CHINA DE LOS OJOS NEGROS
EXTD=
EXTT0=
EXTT1=
EXTT2=
EXTT3=
EXTT4=
EXTT5=
EXTT6=
EXTT7=
EXTT8=
EXTT9=
EXTT10=
EXTT11=
EXTT12=
EXTT13=
EXTT14=
EXTT15=
EXTT16=
EXTT17=
EXTT18=
EXTT19=
PLAYORDER=
